# xmcd
#
# Track frame offsets:
#	150
#	12499
#	22901
#	36792
#	47035
#	59630
#	69648
#	83134
#	95317
#	104365
#
# Disc length: 1570 seconds
#
# Revision: 0
# Processed by: cddbd v1.5.1PL0 Copyright (c) Steve Scherf et al.
# Submitted via: dBpowerAMP V4.0
#
DISCID=7d06200a
DTITLE=Lalo Gonzalez "Piporro" - Joyas Musicales "El Piporro", Vol 2
DYEAR=1900
DGENRE=Polka
TTITLE0=Diganle, Juan Colorado
TTITLE1=En tu ventana, Rodolfo Leal
TTITLE2=Los Desfiguros, Lalo Gonzalez "Piporro"
TTITLE3=Mil latir el Tiqu Tic Tac, Lalo Gonzalez "Piporro"
TTITLE4=Prudencia, Lalo Gonzalez "Piporro"
TTITLE5=Tu Sabor, Lalo Gonzalez "Piporro"
TTITLE6=De par en par, Lalo Gonzalez "Piporro"
TTITLE7=Una Cruda Mal Curada, Lalo Gonzalez "Piporro"
TTITLE8=Todo al reves, Isidoro Coronel
TTITLE9=Sabado Distrito Federal, Salvador Flores
EXTD=Joyas Musicales
EXTT0=
EXTT1=
EXTT2=
EXTT3=
EXTT4=
EXTT5=
EXTT6=
EXTT7=
EXTT8=
EXTT9=
PLAYORDER=
